<svg width="2489" height="918" viewBox="0 0 2489 918" fill="none" xmlns="http://www.w3.org/2000/svg">
<g clip-path="url(#clip0_1033_1104)">
<path fill-rule="evenodd" clip-rule="evenodd" d="M1481.99 33H508.006C500.271 33 493.27 36.1328 488.203 41.1974C483.134 46.2635 480 53.2627 480 60.9938V728.006C480 735.733 483.135 742.733 488.205 747.801C493.273 752.866 500.274 756 508.006 756H1481.99C1489.73 756 1496.73 752.867 1501.8 747.803C1506.87 742.736 1510 735.737 1510 728.006V60.9938C1510 53.2667 1506.86 46.2669 1501.79 41.1995C1496.73 36.1342 1489.73 33 1481.99 33Z" fill="white" stroke="#141C3A" stroke-width="8"/>
<path fill-rule="evenodd" clip-rule="evenodd" d="M1434.01 95H554.993C551.683 95 548.683 96.3444 546.511 98.5199C544.342 100.692 543 103.692 543 107.006V603.994C543 607.308 544.342 610.309 546.511 612.481C548.682 614.656 551.681 616 554.993 616H1434.01C1437.32 616 1440.32 614.656 1442.49 612.48C1444.66 610.308 1446 607.308 1446 603.994V107.006C1446 103.692 1444.66 100.691 1442.49 98.5189C1440.32 96.3444 1437.32 95 1434.01 95Z" fill="#25535B" stroke="#25535B" stroke-width="8"/>
<path fill-rule="evenodd" clip-rule="evenodd" d="M1069.35 756H921.65L911.679 885H1079.32L1069.35 756Z" fill="white" stroke="#141C3A" stroke-width="8"/>
<path fill-rule="evenodd" clip-rule="evenodd" d="M1140 914H851.002C850.726 914 850.476 913.889 850.295 913.708C850.112 913.524 850 913.27 850 912.991V899.5C850 895.495 851.623 891.871 854.248 889.247C856.873 886.623 860.5 885 864.506 885H1126.49C1130.5 885 1134.13 886.624 1136.75 889.248C1139.38 891.872 1141 895.496 1141 899.5V912.991C1141 913.271 1140.89 913.525 1140.71 913.708C1140.53 913.89 1140.27 914 1140 914Z" fill="white" stroke="#141C3A" stroke-width="8"/>
<path d="M995.5 710C1005.72 710 1014 701.717 1014 691.5C1014 681.283 1005.72 673 995.5 673C985.283 673 977 681.283 977 691.5C977 701.717 985.283 710 995.5 710Z" stroke="#141C3A" stroke-width="8"/>
<path d="M559 525H409C395.745 525 385 535.745 385 549V890C385 903.255 395.745 914 409 914H559C572.255 914 583 903.255 583 890V549C583 535.745 572.255 525 559 525Z" fill="white" stroke="#141C3A" stroke-width="8"/>
<path fill-rule="evenodd" clip-rule="evenodd" d="M583 569H385V856.3H583V569Z" fill="#141C3A" stroke="#141C3A" stroke-width="8"/>
<path d="M528 543H441C438.791 543 437 544.791 437 547C437 549.209 438.791 551 441 551H528C530.209 551 532 549.209 532 547C532 544.791 530.209 543 528 543Z" fill="#141C3A"/>
<path d="M495.8 884.4C495.8 878.104 490.696 873 484.4 873C478.104 873 473 878.104 473 884.4C473 890.696 478.104 895.8 484.4 895.8C490.696 895.8 495.8 890.696 495.8 884.4Z" fill="#141C3A"/>
<path d="M441 727C449.284 727 456 720.284 456 712C456 703.716 449.284 697 441 697C432.716 697 426 703.716 426 712C426 720.284 432.716 727 441 727Z" fill="#25535B" stroke="#25535B" stroke-width="8"/>
<path d="M542 686H480C477.791 686 476 687.791 476 690C476 692.209 477.791 694 480 694H542C544.209 694 546 692.209 546 690C546 687.791 544.209 686 542 686Z" fill="white"/>
<path d="M522 708H480C477.791 708 476 709.791 476 712C476 714.209 477.791 716 480 716H522C524.209 716 526 714.209 526 712C526 709.791 524.209 708 522 708Z" fill="white"/>
<path d="M502 730H480C477.791 730 476 731.791 476 734C476 736.209 477.791 738 480 738H502C504.209 738 506 736.209 506 734C506 731.791 504.209 730 502 730Z" fill="white"/>
<path d="M283.5 714C368.276 714 437 645.276 437 560.5C437 475.724 368.276 407 283.5 407C198.724 407 130 475.724 130 560.5C130 645.276 198.724 714 283.5 714Z" fill="#B15330" stroke="#141C3A" stroke-width="8"/>
<path fill-rule="evenodd" clip-rule="evenodd" d="M1936.01 375H1251.99C1244.26 375 1237.26 378.134 1232.2 383.2C1227.13 388.267 1224 395.267 1224 403V844C1224 851.728 1227.13 858.729 1232.2 863.797C1237.27 868.865 1244.26 872 1251.99 872H1936.01C1943.74 872 1950.74 868.866 1955.8 863.8C1960.87 858.733 1964 851.733 1964 844V403C1964 395.272 1960.87 388.271 1955.8 383.203C1950.73 378.135 1943.74 375 1936.01 375Z" fill="white" stroke="#141C3A" stroke-width="8"/>
<path fill-rule="evenodd" clip-rule="evenodd" d="M2014.01 872H1173.99C1173.72 872 1173.47 872.111 1173.29 872.291C1173.11 872.472 1173 872.723 1173 873V893C1173 898.8 1175.35 904.049 1179.15 907.849C1182.95 911.65 1188.21 914 1194.01 914H1993.99C1999.79 914 2005.05 911.649 2008.85 907.849C2012.65 904.049 2015 898.799 2015 893V873C2015 872.723 2014.89 872.473 2014.71 872.291C2014.53 872.113 2014.28 872 2014.01 872Z" fill="white" stroke="#141C3A" stroke-width="8"/>
<path fill-rule="evenodd" clip-rule="evenodd" d="M1649.29 872.449H1537.31C1539.26 877.584 1542.53 882.065 1546.71 885.477C1552.05 889.836 1558.87 892.448 1566.29 892.448H1620.3C1627.73 892.448 1634.55 889.835 1639.89 885.476C1644.07 882.064 1647.34 877.583 1649.29 872.449Z" fill="white" stroke="#141C3A" stroke-width="8"/>
<path d="M1926.41 418H1261C1256.58 418 1253 421.582 1253 426V821.85C1253 826.268 1256.58 829.85 1261 829.85H1926.41C1930.82 829.85 1934.41 826.268 1934.41 821.85V426C1934.41 421.582 1930.82 418 1926.41 418Z" fill="#B15330"/>
<path d="M973 109C975.761 109 978 106.761 978 104C978 101.239 975.761 99 973 99C970.239 99 968 101.239 968 104C968 106.761 970.239 109 973 109Z" fill="#293347"/>
<path fill-rule="evenodd" clip-rule="evenodd" d="M1141 -34H695V401.001C695 406.527 697.238 411.525 700.858 415.143C704.479 418.763 709.482 421 715.009 421H1120.99C1126.52 421 1131.52 418.762 1135.14 415.142C1138.76 411.524 1141 406.524 1141 401.001V-34Z" fill="#141C3A" stroke="#141C3A" stroke-width="8"/>
<path opacity="0.54" d="M757 250H747C744.791 250 743 251.791 743 254C743 256.209 744.791 258 747 258H757C759.209 258 761 256.209 761 254C761 251.791 759.209 250 757 250Z" fill="#535B6B"/>
<path opacity="0.54" d="M757 50H747C744.791 50 743 51.7909 743 54C743 56.2091 744.791 58 747 58H757C759.209 58 761 56.2091 761 54C761 51.7909 759.209 50 757 50Z" fill="#535B6B"/>
<path fill-rule="evenodd" clip-rule="evenodd" d="M777 50H804C806.209 50 808 51.7909 808 54C808 56.2091 806.209 58 804 58H777C774.791 58 773 56.2091 773 54C773 51.7909 774.791 50 777 50Z" fill="#6E07F3"/>
<path fill-rule="evenodd" clip-rule="evenodd" d="M822 50H849C851.209 50 853 51.7909 853 54C853 56.2091 851.209 58 849 58H822C819.791 58 818 56.2091 818 54C818 51.7909 819.791 50 822 50Z" fill="#5BE9B9"/>
<path fill-rule="evenodd" clip-rule="evenodd" d="M867 50H917C919.209 50 921 51.7909 921 54C921 56.2091 919.209 58 917 58H867C864.791 58 863 56.2091 863 54C863 51.7909 864.791 50 867 50Z" fill="#6E07F3"/>
<path fill-rule="evenodd" clip-rule="evenodd" d="M935 50H1009C1011.21 50 1013 51.7909 1013 54C1013 56.2091 1011.21 58 1009 58H935C932.791 58 931 56.2091 931 54C931 51.7909 932.791 50 935 50Z" fill="#6E07F3"/>
<path opacity="0.54" d="M757 90H747C744.791 90 743 91.7909 743 94C743 96.2091 744.791 98 747 98H757C759.209 98 761 96.2091 761 94C761 91.7909 759.209 90 757 90Z" fill="#535B6B"/>
<path opacity="0.54" d="M757 130H747C744.791 130 743 131.791 743 134C743 136.209 744.791 138 747 138H757C759.209 138 761 136.209 761 134C761 131.791 759.209 130 757 130Z" fill="#535B6B"/>
<path opacity="0.54" d="M757 170H747C744.791 170 743 171.791 743 174C743 176.209 744.791 178 747 178H757C759.209 178 761 176.209 761 174C761 171.791 759.209 170 757 170Z" fill="#535B6B"/>
<path opacity="0.54" d="M757 210H747C744.791 210 743 211.791 743 214C743 216.209 744.791 218 747 218H757C759.209 218 761 216.209 761 214C761 211.791 759.209 210 757 210Z" fill="#535B6B"/>
<path opacity="0.54" d="M757 290H747C744.791 290 743 291.791 743 294C743 296.209 744.791 298 747 298H757C759.209 298 761 296.209 761 294C761 291.791 759.209 290 757 290Z" fill="#535B6B"/>
<path opacity="0.54" d="M757 330H747C744.791 330 743 331.791 743 334C743 336.209 744.791 338 747 338H757C759.209 338 761 336.209 761 334C761 331.791 759.209 330 757 330Z" fill="#535B6B"/>
<path d="M839 90H777C774.791 90 773 91.7909 773 94C773 96.2091 774.791 98 777 98H839C841.209 98 843 96.2091 843 94C843 91.7909 841.209 90 839 90Z" fill="#6E07F3"/>
<path d="M969 90H857C854.791 90 853 91.7909 853 94C853 96.2091 854.791 98 857 98H969C971.209 98 973 96.2091 973 94C973 91.7909 971.209 90 969 90Z" fill="#5BE9B9"/>
<path d="M1029 90H987C984.791 90 983 91.7909 983 94C983 96.2091 984.791 98 987 98H1029C1031.21 98 1033 96.2091 1033 94C1033 91.7909 1031.21 90 1029 90Z" fill="#6E07F3"/>
<path d="M819 130H777C774.791 130 773 131.791 773 134C773 136.209 774.791 138 777 138H819C821.209 138 823 136.209 823 134C823 131.791 821.209 130 819 130Z" fill="#5BE9B9"/>
<path d="M879 130H837C834.791 130 833 131.791 833 134C833 136.209 834.791 138 837 138H879C881.209 138 883 136.209 883 134C883 131.791 881.209 130 879 130Z" fill="#6E07F3"/>
<path d="M919 130H897C894.791 130 893 131.791 893 134C893 136.209 894.791 138 897 138H919C921.209 138 923 136.209 923 134C923 131.791 921.209 130 919 130Z" fill="#6E07F3"/>
<path d="M869 170H777C774.791 170 773 171.791 773 174C773 176.209 774.791 178 777 178H869C871.209 178 873 176.209 873 174C873 171.791 871.209 170 869 170Z" fill="#6E07F3"/>
<path d="M949 170H887C884.791 170 883 171.791 883 174C883 176.209 884.791 178 887 178H949C951.209 178 953 176.209 953 174C953 171.791 951.209 170 949 170Z" fill="#6E07F3"/>
<path d="M869 210H777C774.791 210 773 211.791 773 214C773 216.209 774.791 218 777 218H869C871.209 218 873 216.209 873 214C873 211.791 871.209 210 869 210Z" fill="#6E07F3"/>
<path d="M1009 210H887C884.791 210 883 211.791 883 214C883 216.209 884.791 218 887 218H1009C1011.21 218 1013 216.209 1013 214C1013 211.791 1011.21 210 1009 210Z" fill="#5BE9B9"/>
<path d="M839 250H777C774.791 250 773 251.791 773 254C773 256.209 774.791 258 777 258H839C841.209 258 843 256.209 843 254C843 251.791 841.209 250 839 250Z" fill="#6E07F3"/>
<path d="M919 250H857C854.791 250 853 251.791 853 254C853 256.209 854.791 258 857 258H919C921.209 258 923 256.209 923 254C923 251.791 921.209 250 919 250Z" fill="#5BE9B9"/>
<path d="M969 250H937C934.791 250 933 251.791 933 254C933 256.209 934.791 258 937 258H969C971.209 258 973 256.209 973 254C973 251.791 971.209 250 969 250Z" fill="#6E07F3"/>
<path d="M899 290H777C774.791 290 773 291.791 773 294C773 296.209 774.791 298 777 298H899C901.209 298 903 296.209 903 294C903 291.791 901.209 290 899 290Z" fill="#25535B"/>
<path d="M829 330H777C774.791 330 773 331.791 773 334C773 336.209 774.791 338 777 338H829C831.209 338 833 336.209 833 334C833 331.791 831.209 330 829 330Z" fill="#5BE9B9"/>
<path fill-rule="evenodd" clip-rule="evenodd" d="M2138 272H1590V661.996C1590 669.731 1593.13 676.732 1598.2 681.799C1603.27 686.866 1610.27 690 1618.01 690H2109.99C2117.73 690 2124.73 686.866 2129.8 681.8C2134.87 676.733 2138 669.731 2138 661.996V272Z" fill="white" stroke="#141C3A" stroke-width="8"/>
<path fill-rule="evenodd" clip-rule="evenodd" d="M2109.99 222H1618.01C1610.27 222 1603.27 225.132 1598.2 230.196C1593.13 235.262 1590 242.262 1590 249.993V280H2138V249.993C2138 242.263 2134.86 235.264 2129.8 230.198C2124.73 225.133 2117.72 222 2109.99 222Z" fill="#141C3A" stroke="#141C3A" stroke-width="8"/>
<path d="M1633 260C1637.97 260 1642 255.971 1642 251C1642 246.029 1637.97 242 1633 242C1628.03 242 1624 246.029 1624 251C1624 255.971 1628.03 260 1633 260Z" fill="white"/>
<path d="M1663 260C1667.97 260 1672 255.971 1672 251C1672 246.029 1667.97 242 1663 242C1658.03 242 1654 246.029 1654 251C1654 255.971 1658.03 260 1663 260Z" fill="#6E07F3"/>
<path d="M1693 260C1697.97 260 1702 255.971 1702 251C1702 246.029 1697.97 242 1693 242C1688.03 242 1684 246.029 1684 251C1684 255.971 1688.03 260 1693 260Z" fill="#5BE9B9"/>
<path d="M1929 581C1984.23 581 2029 536.228 2029 481C2029 425.772 1984.23 381 1929 381C1873.77 381 1829 425.772 1829 481C1829 536.228 1873.77 581 1929 581Z" stroke="#25535B" stroke-width="9"/>
<path fill-rule="evenodd" clip-rule="evenodd" d="M1942 369H1918V393H1942V369Z" fill="#FFFFFE" stroke="#B15330" stroke-width="8"/>
<path fill-rule="evenodd" clip-rule="evenodd" d="M1941 569H1917V593H1941V569Z" fill="#FFFFFE" stroke="#B15330" stroke-width="8"/>
<path fill-rule="evenodd" clip-rule="evenodd" d="M1841 470H1817V494H1841V470Z" fill="#FFFFFE" stroke="#B15330" stroke-width="8"/>
<path d="M2029 391V466" stroke="#141C3A" stroke-width="8" stroke-linecap="square"/>
<path d="M2029 496V571" stroke="#141C3A" stroke-width="8" stroke-linecap="square"/>
<path d="M2029 400C2035.63 400 2041 394.627 2041 388C2041 381.373 2035.63 376 2029 376C2022.37 376 2017 381.373 2017 388C2017 394.627 2022.37 400 2029 400Z" fill="#141C3A"/>
<path d="M2029 590C2035.63 590 2041 584.627 2041 578C2041 571.373 2035.63 566 2029 566C2022.37 566 2017 571.373 2017 578C2017 584.627 2022.37 590 2029 590Z" fill="#141C3A"/>
<path fill-rule="evenodd" clip-rule="evenodd" d="M2040 470H2016V494H2040V470Z" fill="#FFFFFE" stroke="#B15330" stroke-width="8"/>
<path d="M1742 356H1696C1689.37 356 1684 361.373 1684 368V414C1684 420.627 1689.37 426 1696 426H1742C1748.63 426 1754 420.627 1754 414V368C1754 361.373 1748.63 356 1742 356Z" fill="#141C3A"/>
<path d="M1742 446H1696C1689.37 446 1684 451.373 1684 458V504C1684 510.627 1689.37 516 1696 516H1742C1748.63 516 1754 510.627 1754 504V458C1754 451.373 1748.63 446 1742 446Z" fill="#B15330"/>
<path d="M1742 536H1696C1689.37 536 1684 541.373 1684 548V594C1684 600.627 1689.37 606 1696 606H1742C1748.63 606 1754 600.627 1754 594V548C1754 541.373 1748.63 536 1742 536Z" fill="#25535B"/>
<path d="M2425 878C2458.14 878 2485 851.137 2485 818C2485 784.863 2458.14 758 2425 758C2391.86 758 2365 784.863 2365 818C2365 851.137 2391.86 878 2425 878Z" fill="white" stroke="#141C3A" stroke-width="8"/>
<path d="M2425 853C2444.33 853 2460 837.33 2460 818C2460 798.67 2444.33 783 2425 783C2405.67 783 2390 798.67 2390 818C2390 837.33 2405.67 853 2425 853Z" fill="white" stroke="#141C3A" stroke-width="8"/>
<path d="M2345 747C2356.05 747 2365 738.046 2365 727C2365 715.954 2356.05 707 2345 707C2333.95 707 2325 715.954 2325 727C2325 738.046 2333.95 747 2345 747Z" fill="#FFFFFE" stroke="#141C3A" stroke-width="8"/>
<path fill-rule="evenodd" clip-rule="evenodd" d="M2426.93 722H2257C2255.9 722 2254.9 722.448 2254.17 723.172C2253.45 723.895 2253 724.895 2253 726V894C2253 899.523 2255.24 904.523 2258.86 908.142C2262.48 911.761 2267.48 914 2273 914H2410.93C2416.45 914 2421.45 911.761 2425.07 908.142C2428.69 904.523 2430.93 899.523 2430.93 894V726C2430.93 724.895 2430.48 723.895 2429.76 723.172C2429.03 722.448 2428.03 722 2426.93 722Z" fill="white" stroke="#141C3A" stroke-width="8"/>
<path fill-rule="evenodd" clip-rule="evenodd" d="M2382 776H2346C2343.79 776 2341.79 776.895 2340.34 778.343C2338.9 779.791 2338 781.791 2338 784V832C2338 834.209 2338.9 836.209 2340.34 837.657C2341.79 839.105 2343.79 840 2346 840H2382C2384.21 840 2386.21 839.105 2387.66 837.657C2389.1 836.209 2390 834.209 2390 832V784C2390 781.791 2389.1 779.791 2387.66 778.343C2386.21 776.895 2384.21 776 2382 776Z" fill="#B15330" stroke="#141C3A" stroke-width="8"/>
<path d="M2363.5 723.5V769" stroke="#141C3A" stroke-width="8" stroke-linecap="square"/>
<path fill-rule="evenodd" clip-rule="evenodd" d="M2139 859.2C2122.76 859.2 2108.06 865.781 2097.42 876.422C2087.71 886.137 2081.38 899.237 2080.35 913.8H2197.65C2196.62 899.237 2190.29 886.137 2180.58 876.422C2169.94 865.781 2155.24 859.2 2139 859.2Z" fill="white" stroke="#141C3A" stroke-width="8.4"/>
<path d="M2143 864C2143 861.791 2141.21 860 2139 860C2136.79 860 2135 861.791 2135 864V869C2135 871.209 2136.79 873 2139 873C2141.21 873 2143 871.209 2143 869V864Z" fill="#141C3A"/>
<path fill-rule="evenodd" clip-rule="evenodd" d="M301 796H59.0005C42.708 796 27.9578 802.604 17.2808 813.281C6.60386 823.958 0 838.708 0 855C0 871.293 6.60386 886.043 17.2808 896.72C27.9578 907.397 42.708 914.001 59.0005 914.001H301C302.657 914.001 304.157 913.329 305.243 912.244C306.328 911.158 307 909.658 307 908.001V898.715C307 896.616 306.189 894.695 304.854 893.262C303.519 891.829 301.661 890.884 299.568 890.735C285.725 889.75 275.435 886.236 268.536 880.526C261.266 874.509 257.498 866.046 257.498 855C257.498 843.94 261.274 835.393 268.628 829.232C275.577 823.409 285.951 819.712 299.949 818.453C301.952 818.214 303.711 817.247 304.971 815.833C306.237 814.414 307 812.544 307 810.509V802C307 800.343 306.328 798.843 305.243 797.757C304.157 796.672 302.657 796 301 796Z" fill="#25535B" stroke="#141C3A" stroke-width="8"/>
<path fill-rule="evenodd" clip-rule="evenodd" d="M288.786 819H58C48.0589 819 39.0589 823.029 32.5442 829.544C26.0294 836.059 22 845.059 22 855C22 864.941 26.0294 873.941 32.5442 880.456C39.0589 886.971 48.0589 891 58 891C166.896 891 244.328 891.208 290.297 891.623C282.25 889.45 273.023 886.37 266.47 879.641C261.207 874.235 257.498 866.538 257.498 855C257.498 843.353 261.277 835.627 266.619 830.24C272.75 824.057 281.176 821.042 288.786 819Z" fill="white" stroke="#141C3A" stroke-width="8"/>
<path fill-rule="evenodd" clip-rule="evenodd" d="M53.9252 864H256.075C258.243 864 260 865.791 260 868C260 870.209 258.243 872 256.075 872H53.9252C51.7574 872 50 870.209 50 868C50 865.791 51.7574 864 53.9252 864Z" fill="#141C3A"/>
<path fill-rule="evenodd" clip-rule="evenodd" d="M53.9252 838H256.075C258.243 838 260 839.791 260 842C260 844.209 258.243 846 256.075 846H53.9252C51.7574 846 50 844.209 50 842C50 839.791 51.7574 838 53.9252 838Z" fill="#141C3A"/>
<path d="M246.154 596.357C241.247 591.994 236.339 587.631 231.432 583.268C223.611 576.323 215.812 569.355 207.992 562.41C206.199 560.829 204.406 559.227 202.636 557.646C202.636 559.739 202.636 561.853 202.636 563.946C207.543 559.583 212.451 555.22 217.359 550.857C225.179 543.912 232.978 536.944 240.799 529.999C242.591 528.418 244.384 526.816 246.154 525.235C247.902 523.677 247.88 520.494 246.154 518.936C244.294 517.221 241.695 517.266 239.813 518.936C234.905 523.299 229.997 527.662 225.09 532.025C217.269 538.97 209.471 545.937 201.65 552.882C199.857 554.463 198.064 556.066 196.294 557.646C194.569 559.182 194.569 562.41 196.294 563.946C201.202 568.309 206.109 572.672 211.017 577.035C218.838 583.98 226.636 590.948 234.457 597.893C236.249 599.473 238.042 601.076 239.813 602.656C241.56 604.215 244.451 604.504 246.154 602.656C247.723 600.965 248.014 598.026 246.154 596.357Z" fill="#141C3A"/>
<path d="M320.886 525.246C325.793 529.609 330.701 533.972 335.609 538.335C343.429 545.28 351.228 552.247 359.048 559.193C360.841 560.773 362.634 562.376 364.404 563.956C364.404 561.864 364.404 559.749 364.404 557.657C359.497 562.02 354.589 566.383 349.681 570.746C341.861 577.691 334.062 584.658 326.242 591.604C324.449 593.184 322.656 594.787 320.886 596.367C319.138 597.926 319.16 601.109 320.886 602.667C322.746 604.381 325.345 604.337 327.228 602.667C332.135 598.304 337.043 593.941 341.95 589.578C349.771 582.633 357.569 575.665 365.39 568.72C367.183 567.14 368.976 565.537 370.746 563.956C372.471 562.42 372.471 559.193 370.746 557.657C365.838 553.294 360.931 548.931 356.023 544.568C348.202 537.622 340.404 530.655 332.583 523.71C330.791 522.129 328.998 520.527 327.228 518.946C325.48 517.388 322.589 517.099 320.886 518.946C319.317 520.638 319.026 523.576 320.886 525.246Z" fill="#141C3A"/>
<path d="M267.538 622.572C268.883 618.565 270.205 614.558 271.549 610.529C274.754 600.89 277.958 591.274 281.163 581.635C285.017 570.015 288.872 558.418 292.748 546.798C296.087 536.759 299.426 526.719 302.765 516.68C304.356 511.805 306.149 506.952 307.628 502.01C307.65 501.943 307.673 501.877 307.695 501.81C308.435 499.606 306.844 496.846 304.558 496.334C302.093 495.777 299.83 497.068 299.045 499.45C297.701 503.457 296.379 507.464 295.034 511.493C291.83 521.132 288.625 530.748 285.421 540.387C281.566 552.007 277.712 563.604 273.835 575.224C270.496 585.264 267.157 595.303 263.818 605.342C262.227 610.195 260.434 615.048 258.955 619.99C258.933 620.056 258.911 620.123 258.888 620.19C258.149 622.394 259.74 625.154 262.025 625.666C264.49 626.223 266.754 624.931 267.538 622.572Z" fill="#141C3A"/>
</g>
<defs>
<clipPath id="clip0_1033_1104">
<rect width="2489" height="918" fill="white"/>
</clipPath>
</defs>
</svg>
